<svg xmlns="http://www.w3.org/2000/svg" xml:space="preserve" width="2000" height="360" data-id="lg_EC38usGXIi9snneoN2" data-version="1" viewBox="0 0 2000 360"><g data-padding="20"><g transform="translate(10 5.564)scale(.96909)"><rect width="560" height="116.17" x="343.019" y="-350.615" fill="none" rx="0" ry="0" transform="translate(434.9 536.64)"/><path fill="#297395" d="M796.939 275.91h-9.77v-71.96h42.67v8.43h-32.9v22h27.45v8.02h-27.45Zm61.68 1.22q-4.63 0-8.74-1.95t-6.68-6.32-2.57-11.67v-34.75h9.25v33.52q0 6.27 2.68 9.61 2.67 3.34 7.81 3.34 4.21 0 8.17-1.7 3.96-1.69 7.04-4.57v-40.2h9.26v39.58q0 4.42 1.9 5.81t4.16 1.39l-1.95 7.19q-9.56 0-11.82-7.6-3.6 3.7-8.33 6.01t-10.18 2.31m63.33.01q-7.71 0-12.18-5.09-4.48-5.08-4.48-14.54v-25.09h-9.25v-8.02h9.46l1.95-16.86h7.1v16.86h14.8v8.02h-14.8v25.81q0 5.96 2.52 8.32 2.51 2.37 6.01 2.37 2.57 0 4.88-.82 2.32-.83 4.27-1.96l2.57 7.41q-2.06 1.23-5.55 2.41-3.5 1.18-7.3 1.18m39.59-.01q-4.63 0-8.74-1.95t-6.68-6.32-2.57-11.67v-34.75h9.25v33.52q0 6.27 2.67 9.61 2.68 3.34 7.82 3.34 4.21 0 8.17-1.7 3.96-1.69 7.04-4.57v-40.2h9.25v39.58q0 4.42 1.91 5.81 1.9 1.39 4.16 1.39l-1.95 7.19q-9.56 0-11.83-7.6-3.59 3.7-8.32 6.01t-10.18 2.31m53.86-1.23h-9.25v-53.46h8.94v11.62q1.34-3.39 3.6-6.32t5.65-4.73q3.4-1.8 7.92-1.8 1.54 0 3.08.15 1.54.16 2.57.46l-2.77 9.57q-1.96-.83-4.63-.83-3.8 0-7.25 2.16-3.44 2.16-5.65 6.68-2.21 4.53-2.21 11.52Zm53.16 1.24q-11.52 0-18.25-7.35t-6.73-20.61q0-8.02 3.03-14.34t8.48-9.97 12.65-3.65q7.71 0 12.8 3.34 5.08 3.34 7.65 8.99 2.57 5.66 2.57 12.44 0 3.6-.3 6.99h-37.42q.92 7.51 5.24 11.72 4.32 4.22 11.41 4.22 4.63 0 8.33-.98 3.7-.97 7.09-2.52l2.16 7.92q-3.7 1.64-8.33 2.72-4.62 1.08-10.38 1.08m-15.63-31.66h29.3q0-7.81-3.9-12.03-3.91-4.21-10.8-4.21-5.96 0-9.87 4.16t-4.73 12.08m60.45 30.42h-9.25v-43.49h-8.23v-8.02h8.23v-6.27q0-9.04 5.04-14.29 5.03-5.24 13.16-5.24 4.21 0 7.4.98 3.18.97 6.06 2.41l-2.77 7.82q-2.16-1.13-4.63-2.06-2.47-.92-5.45-.92-4.32 0-6.94 2.72t-2.62 7.97v6.88h15.83v8.02h-15.83Zm48 1.24q-7.61 0-13.67-3.54-6.07-3.55-9.51-9.87t-3.44-14.55q0-8.63 3.49-14.91 3.5-6.27 9.56-9.66 6.07-3.39 13.57-3.39 7.51 0 13.52 3.39t9.56 9.61 3.55 14.76q0 8.53-3.5 14.85-3.49 6.32-9.51 9.82-6.01 3.49-13.62 3.49m0-8.22q8.12 0 12.65-5.5 4.52-5.5 4.52-14.24 0-5.35-2.26-9.82t-6.12-7.19q-3.85-2.73-8.79-2.73-8.12 0-12.64 5.35-4.53 5.34-4.53 14.19 0 5.34 2.26 9.92 2.27 4.57 6.12 7.29 3.86 2.73 8.79 2.73m48.22 6.98h-9.26v-53.46h8.95v11.62q1.34-3.39 3.6-6.32t5.65-4.73 7.92-1.8q1.54 0 3.08.15 1.54.16 2.57.46l-2.77 9.57q-1.96-.83-4.63-.83-3.8 0-7.25 2.16-3.44 2.16-5.65 6.68-2.21 4.53-2.21 11.52Zm51.4 23.86q-4.73 0-9.2-1.13t-7.97-3.39l3.39-8.02q2.47 1.95 5.76 3.24 3.29 1.28 8.02 1.28 7.3 0 11.46-3.85 4.17-3.86 4.17-12.29v-6.58q-2.06 2.47-5.92 4.68-3.85 2.21-9.2 2.21-6.06 0-11.51-3.14-5.45-3.13-8.84-9.2-3.39-6.06-3.39-14.59 0-8.02 3.34-14.29 3.34-6.28 8.99-9.87 5.66-3.6 12.44-3.6 4.52 0 8.23 1.54 3.7 1.54 6.37 3.8v-4.11h8.43v52.23q0 8.84-3.08 14.39-3.09 5.55-8.59 8.12t-12.9 2.57m2.57-32.07q4.11 0 7.4-1.85 3.29-1.86 5.35-4.32v-27.97q-2.26-1.64-5.45-2.98-3.19-1.33-7.4-1.33-4.22 0-7.92 2.26t-6.01 6.53q-2.32 4.26-2.32 10.43 0 5.86 2.32 10.18 2.31 4.32 6.01 6.68 3.7 2.37 8.02 2.37m59.33 9.45q-11.52 0-18.25-7.35t-6.73-20.61q0-8.02 3.03-14.34t8.48-9.97 12.65-3.65q7.71 0 12.79 3.34 5.09 3.34 7.66 8.99 2.57 5.66 2.57 12.44 0 3.6-.3 6.99h-37.43q.93 7.51 5.25 11.72 4.32 4.22 11.41 4.22 4.63 0 8.33-.98 3.7-.97 7.09-2.52l2.16 7.92q-3.7 1.64-8.33 2.72-4.62 1.08-10.38 1.08m-15.63-31.66h29.3q0-7.81-3.91-12.03-3.9-4.21-10.79-4.21-5.96 0-9.87 4.16t-4.73 12.08"/><rect width="246" height="360.47" x="500.019" y="-472.765" fill="none" rx="0" ry="0" transform="translate(198.04 472.53)"/><path fill="#ffdc00" d="M911.179 147.63v40.81h-128.03v-40.81Zm18.07-91.28v40.5h-162.3v182.87h-40.5V76.76q0-4.21 1.56-7.95 1.55-3.73 4.28-6.54 2.73-2.8 6.46-4.36 3.74-1.56 8.1-1.56Z"/></g><path fill="transparent" stroke="transparent" d="M676.5 0h647v360h-647z"/></g></svg>